HIERARCHY
ROOT Hips
{
	OFFSET	0.00	0.00	0.00
	CHANNELS 6 Xposition Yposition Zposition Zrotation Xrotation Yrotation
	JOINT LeftUpLeg
	{
		OFFSET	 0.126116	-0.014019	-0.065224
		CHANNELS 3 Zrotation Xrotation Yrotation
		JOINT LeftLeg
		{
			OFFSET	 0.000000	 0.000000	 0.569914
			CHANNELS 3 Zrotation Xrotation Yrotation
			JOINT LeftFoot
			{
				OFFSET	 0.000000	 0.000000	 0.544423
				CHANNELS 3 Zrotation Xrotation Yrotation
				JOINT LeftToeBase
				{
					OFFSET	 0.000000	 0.000000	 0.207117
					CHANNELS 3 Zrotation Xrotation Yrotation
					End Site
					{
						OFFSET	 0.000000	 0.000000	 0.207117
					}
				}
			}
		}
	}
	JOINT RightUpLeg
	{
		OFFSET	-0.124023	-0.008373	-0.065224
		CHANNELS 3 Zrotation Xrotation Yrotation
		JOINT RightLeg
		{
			OFFSET	 0.000000	 0.000000	 0.570047
			CHANNELS 3 Zrotation Xrotation Yrotation
			JOINT RightFoot
			{
				OFFSET	 0.000000	 0.000000	 0.544354
				CHANNELS 3 Zrotation Xrotation Yrotation
				JOINT RightToeBase
				{
					OFFSET	 0.000000	 0.000000	 0.207540
					CHANNELS 3 Zrotation Xrotation Yrotation
					End Site
					{
						OFFSET	 0.000000	 0.000000	 0.207540
					}
				}
			}
		}
	}
	JOINT Spine
	{
		OFFSET	 0.000184	-0.007763	 0.117403
		CHANNELS 3 Zrotation Xrotation Yrotation
		JOINT Spine1
		{
			OFFSET	 0.000000	 0.000000	 0.137269
			CHANNELS 3 Zrotation Xrotation Yrotation
			JOINT Spine2
			{
				OFFSET	 0.000000	 0.000000	 0.156879
				CHANNELS 3 Zrotation Xrotation Yrotation
				JOINT LeftShoulder
				{
					OFFSET	 0.080501	-0.002496	 0.160144
					CHANNELS 3 Zrotation Xrotation Yrotation
					JOINT LeftArm
					{
						OFFSET	 0.000000	 0.000000	 0.164363
						CHANNELS 3 Zrotation Xrotation Yrotation
						JOINT LeftForeArm
						{
							OFFSET	 0.000000	 0.000000	 0.364576
							CHANNELS 3 Zrotation Xrotation Yrotation
							JOINT LeftHand
							{
								OFFSET	 0.000000	 0.000000	 0.360812
								CHANNELS 3 Zrotation Xrotation Yrotation
								JOINT LeftHandIndex1
								{
									OFFSET	 0.000000	 0.000000	 0.086006
									CHANNELS 3 Zrotation Xrotation Yrotation
									JOINT LeftHandIndex2
									{
										OFFSET	 0.000000	 0.000000	 0.047236
										CHANNELS 3 Zrotation Xrotation Yrotation
										JOINT LeftHandIndex3
										{
											OFFSET	-0.004284	-0.000551	 0.038166
											CHANNELS 3 Zrotation Xrotation Yrotation
											End Site
											{
												OFFSET	-0.004284	-0.000551	 0.038166
											}
										}
									}
								}
							}
						}
					}
				}
				JOINT Neck
				{
					OFFSET	 0.000000	 0.000000	 0.176489
					CHANNELS 3 Zrotation Xrotation Yrotation
					JOINT Head
					{
						OFFSET	 0.000000	-0.001747	 0.077940
						CHANNELS 3 Zrotation Xrotation Yrotation
						End Site
						{
							OFFSET	 0.000000	-0.001747	 0.077940
						}
					}
				}
				JOINT RightShoulder
				{
					OFFSET	-0.080363	 0.000306	 0.159706
					CHANNELS 3 Zrotation Xrotation Yrotation
					JOINT RightArm
					{
						OFFSET	 0.000000	 0.000000	 0.164196
						CHANNELS 3 Zrotation Xrotation Yrotation
						JOINT RightForeArm
						{
							OFFSET	 0.000000	 0.000000	 0.365611
							CHANNELS 3 Zrotation Xrotation Yrotation
							JOINT RightHand
							{
								OFFSET	 0.000000	 0.000000	 0.360648
								CHANNELS 3 Zrotation Xrotation Yrotation
								JOINT RightHandIndex1
								{
									OFFSET	 0.000000	 0.000000	 0.069977
									CHANNELS 3 Zrotation Xrotation Yrotation
									JOINT RightHandIndex2
									{
										OFFSET	 0.000000	 0.000000	 0.052305
										CHANNELS 3 Zrotation Xrotation Yrotation
										JOINT RightHandIndex3
										{
											OFFSET	 0.009002	-0.000782	 0.042196
											CHANNELS 3 Zrotation Xrotation Yrotation
											End Site
											{
												OFFSET	 0.009002	-0.000782	 0.042196
											}
										}
									}
								}
							}
						}
					}
				}
			}
		}
	}
}
MOTION
Frames:    7
Frame Time: 0.03333334
-0.449832	 0.604242	 0.535589	 82.152040	 4.008275	-0.864534	 9.751539	 17.416640	-176.289500	-5.996887	-11.624280	 1.537382	-16.765480	 89.186270	 20.227820	-2.292090	 40.517670	-0.289589	 4.258338	-45.888490	 179.739400	-0.702410	-43.101730	 3.282173	-177.057600	 83.733840	-178.665000	 2.401243	 23.362560	-0.105466	-7.899372	 2.799794	 2.830110	-12.447630	-3.738234	 0.337807	-14.528620	-6.948467	-2.517257	-91.776180	 78.527400	-180.000000	 41.706990	 62.096790	-56.914990	-6.646553	-4.581895	-27.549370	 2.463192	-25.506870	-5.944571	-3.812334	 37.924440	-2.927599	-2.450526	 36.184240	 0.754587	-1.378229	 35.397820	-2.634230	-0.179059	 4.855334	-2.367847	-3.726966	-23.219540	-4.268546	 89.782090	 78.203830	-180.000000	-30.915390	 72.989500	 34.796730	 3.936653	-6.546656	 20.074980	-10.038700	-26.436430	 10.652870	 6.437017	 35.671460	-0.771858	 2.830251	 35.756010	-7.813440	-2.350882	 35.473990	 5.254307
-0.410617	 0.599491	 0.533179	 83.061010	 4.180016	-1.196746	 9.188354	 18.988290	-176.388400	-5.467869	-11.624420	 1.536659	-5.191909	 88.735600	 8.648396	-2.261264	 42.930390	-0.357186	 4.743482	-45.526510	-179.346400	 0.072415	-42.082830	 3.904069	-175.832700	 85.239170	-179.120300	 2.379992	 29.389180	 0.021788	-8.197001	 2.612455	 2.741797	-12.677940	-3.806975	 0.164521	-14.677300	-6.915957	-2.586217	-91.776180	 78.527420	-180.000000	 43.177390	 62.547010	-58.452590	-6.307019	-4.557116	-25.776460	 2.916201	-25.611060	-5.953020	-3.812334	 37.924440	-2.927599	-2.450526	 36.184240	 0.754587	-1.378229	 35.397820	-2.634230	-0.350294	 5.160538	-2.300554	-3.873759	-23.639810	-4.327705	 89.782120	 78.203870	 180.000000	-29.889350	 73.397750	 33.120490	 3.892941	-6.413272	 19.366240	-10.257310	-26.530640	 10.662910	 6.437017	 35.671460	-0.771858	 2.830251	 35.756010	-7.813440	-2.350882	 35.473990	 5.254307
-0.355280	 0.591187	 0.530525	 83.938040	 4.449397	-1.435933	 8.667993	 21.133900	-176.951700	-4.633384	-11.620380	 1.567392	 2.783300	 87.142550	 0.869511	-2.201685	 46.725330	-0.473265	 5.299613	-44.567960	-178.526000	 1.042773	-42.888740	 4.916864	-175.399800	 87.367520	-178.749400	 2.380523	 29.280700	 0.019415	-8.666887	 2.307300	 2.407675	-12.914610	-3.972778	-0.125756	-14.744140	-6.880015	-2.675849	-91.776180	 78.527400	-180.000000	 44.719520	 63.825560	-59.550400	-6.371118	-4.456814	-23.360630	 3.506100	-25.846250	-5.974280	-3.812334	 37.924440	-2.927599	-2.450526	 36.184240	 0.754587	-1.378229	 35.397820	-2.634230	-0.559302	 5.092493	-2.225199	-4.004675	-23.517000	-4.160164	 89.782140	 78.203830	 180.000000	-28.295670	 74.066230	 30.867340	 4.112138	-6.273484	 18.673520	-10.505880	-26.744330	 10.690720	 6.437017	 35.671460	-0.771858	 2.830251	 35.756010	-7.813440	-2.350882	 35.473990	 5.254307
-0.315597	 0.584538	 0.530251	 84.387050	 4.509198	-1.486844	 8.459816	 22.589390	-177.583600	-3.983119	-11.614900	 1.607959	 4.545333	 85.025590	-0.599996	-2.142920	 49.727140	-0.575682	 5.109461	-43.690990	-178.572500	 3.167883	-44.199260	 6.499566	-174.598200	 89.626220	-178.349500	 2.378062	 29.775410	 0.030284	-9.045259	 2.105529	 1.974118	-13.026920	-4.158659	-0.324385	-14.687460	-6.947654	-2.756281	-91.776180	 78.527400	-180.000000	 45.257000	 65.107500	-59.315750	-6.722180	-4.361824	-21.827720	 3.886487	-26.063980	-5.994872	-3.812334	 37.924440	-2.927599	-2.450526	 36.184240	 0.754587	-1.378229	 35.397820	-2.634230	-0.695236	 4.899288	-2.135697	-4.070861	-23.203540	-3.953241	 89.782120	 78.203930	 180.000000	-27.040510	 74.503660	 29.138670	 4.347440	-6.182831	 18.341130	-10.598000	-26.938480	 10.722090	 6.437017	 35.671460	-0.771858	 2.830251	 35.756010	-7.813440	-2.350882	 35.473990	 5.254307
-0.263237	 0.575515	 0.532518	 84.673040	 4.411774	-1.339465	 8.537433	 24.404470	-178.606200	-3.265616	-11.604080	 1.684881	 5.072980	 80.651210	-0.502226	-2.070858	 52.746950	-0.690821	 4.144799	-42.414640	-179.261300	 6.264040	-45.963050	 8.541147	 5.678287	 87.373410	 2.717508	 2.370281	 31.203540	 0.062126	-9.397657	 1.801659	 1.170683	-12.977740	-4.415015	-0.608260	-14.638830	-7.141285	-2.747929	-91.776200	 78.527450	-180.000000	 45.161330	 67.103790	-57.868780	-7.595783	-4.209348	-20.178420	 4.250410	-26.399210	-6.030256	-3.812334	 37.924440	-2.927599	-2.450526	 36.184240	 0.754587	-1.378229	 35.397820	-2.634230	-0.877042	 4.789200	-1.984108	-4.143669	-22.906900	-3.602101	 89.782090	 78.203830	-180.000000	-25.288260	 74.975740	 26.733410	 4.713147	-6.063284	 18.070840	-10.594010	-27.237850	 10.778900	 6.437017	 35.671460	-0.771858	 2.830251	 35.756010	-7.813440	-2.350882	 35.473990	 5.254307
-0.208293	 0.565068	 0.536857	 84.780160	 4.320769	-1.336825	 8.827277	 26.144940	-179.431800	-3.178954	-11.602330	 1.696912	 4.376260	 73.835530	 0.749179	-2.064409	 52.989890	-0.700702	 3.575197	-41.114000	-179.924800	 6.321393	-47.604630	 8.584137	 4.875521	 85.961240	 3.014518	 2.374705	 30.415990	 0.044480	-9.514472	 1.103751	 0.692018	-12.715260	-4.597078	-0.833035	-14.722190	-7.182749	-2.549045	-91.776180	 78.527400	 180.000000	 43.929680	 69.320550	-54.912560	-9.045218	-3.985310	-19.038140	 4.234899	-26.798740	-6.082178	-3.812334	 37.924440	-2.927599	-2.450526	 36.184240	 0.754587	-1.378229	 35.397820	-2.634230	-0.971912	 4.724216	-1.881351	-4.140040	-22.574300	-3.282961	 89.782120	 78.203870	 180.000000	-24.330270	 75.321850	 25.401000	 5.007081	-5.966498	 17.957290	-10.546580	-27.607540	 10.852240	 6.437017	 35.671460	-0.771858	 2.830251	 35.756010	-7.813440	-2.350882	 35.473990	 5.254307
-0.150456	 0.553621	 0.543296	 84.938930	 4.217324	-1.425865	 9.139235	 27.721300	 179.753700	-3.791129	-11.620150	 1.568240	 4.006066	 64.543610	 1.111592	-2.074273	 52.616830	-0.685568	 3.286523	-38.808920	 179.560400	 5.858457	-48.724760	 8.295195	 4.922832	 85.622470	 2.369536	 2.386079	 28.062790	-0.007039	-9.705831	 0.505999	 0.502468	-12.443850	-4.643845	-0.979902	-14.630900	-6.924756	-2.356439	-91.776180	 78.527400	 180.000000	 41.501900	 71.195140	-50.074680	-10.558220	-3.709573	-18.640630	 3.713647	-27.259640	-6.155939	-3.812334	 37.924440	-2.927599	-2.450526	 36.184240	 0.754587	-1.378229	 35.397820	-2.634230	-0.962533	 4.663018	-1.864842	-4.089301	-21.819250	-3.008006	 89.782120	 78.203870	 180.000000	-24.120320	 75.478810	 24.977060	 5.158554	-5.892859	 18.010780	-10.448260	-28.048120	 10.944180	 6.437017	 35.671460	-0.771858	 2.830251	 35.756010	-7.813440	-2.350882	 35.473990	 5.254307
